# Blender v2.82 (sub 7) OBJ File: ''
# www.blender.org
mtllib arrow.mtl
o Box
v 0.670653 0.250000 0.050000
v 0.670653 -0.250000 0.050000
v 0.670653 -0.250000 -0.050000
v 0.670653 0.250000 -0.050000
v -0.000999 0.250000 -0.050000
v -0.000999 -0.250000 -0.050000
v -0.000999 -0.250000 0.050000
v -0.000999 0.250000 0.050000
vt 0.000000 1.000000
vt 0.000000 0.000000
vt 1.000000 0.000000
vt 1.000000 1.000000
vt 0.000000 1.000000
vt 0.000000 0.000000
vt 1.000000 0.000000
vt 1.000000 1.000000
vt 0.000000 0.000000
vt 1.000000 0.000000
vt 0.000000 1.000000
vt 1.000000 1.000000
vt 0.000000 1.000000
vt 0.000000 0.000000
vt 1.000000 0.000000
vt 1.000000 1.000000
vt 0.000000 1.000000
vt 0.000000 0.000000
vt 1.000000 0.000000
vt 1.000000 1.000000
vn 1.0000 -0.0000 0.0000
vn -1.0000 0.0000 0.0000
vn 0.0000 1.0000 0.0000
vn 0.0000 -1.0000 -0.0000
vn 0.0000 -0.0000 1.0000
vn 0.0000 0.0000 -1.0000
usemtl b0b0b0
s 1
f 1/1/1 2/2/1 3/3/1 4/4/1
f 5/5/2 6/6/2 7/7/2 8/8/2
f 5/5/3 8/9/3 1/10/3 4/4/3
f 7/11/4 6/6/4 3/3/4 2/12/4
f 8/13/5 7/14/5 2/15/5 1/16/5
f 4/17/6 3/18/6 6/19/6 5/20/6
o Box1
v 0.666556 0.500000 -0.050000
v 0.666556 -0.500000 -0.050000
v 0.666556 -0.500000 0.050000
v 0.666556 0.500000 0.050000
v 1.002382 0.000517 0.050000
v 1.002382 0.000517 -0.050000
vt 0.000000 1.000000
vt 0.000000 0.000000
vt 1.000000 0.000000
vt 1.000000 1.000000
vt 0.000000 0.000000
vt 1.000000 0.000000
vt 1.000000 1.000000
vt 0.000000 1.000000
vt 1.000000 0.000000
vt 1.000000 1.000000
vt 0.000000 1.000000
vt 0.000000 0.000000
vt 0.000000 1.000000
vt 1.000000 0.000000
vt 1.000000 1.000000
vn -1.0000 0.0000 0.0000
vn 0.8299 0.5580 0.0000
vn 0.8304 -0.5572 -0.0000
vn 0.0000 -0.0000 1.0000
vn 0.0000 0.0000 -1.0000
usemtl b0b0b0
s 1
f 9/21/7 10/22/7 11/23/7 12/24/7
f 9/21/8 12/25/8 13/26/8 14/27/8
f 11/28/9 10/22/9 14/29/9 13/30/9
f 12/31/10 11/32/10 13/26/10
f 14/33/11 10/34/11 9/35/11
